<svg id="Capa_1" enable-background="new 0 0 510.42 510.42" height="512" viewBox="0 0 510.42 510.42" width="512" xmlns="http://www.w3.org/2000/svg"><g><path d="m506.331 337.123-90.709-278.508c-6.806-20.917-21.351-37.928-40.955-47.901-19.604-9.972-41.919-11.711-62.829-4.9l-98.568 32.101h-139.02c-40.941 0-74.25 33.309-74.25 74.25v38.28c0 4.142 3.357 7.5 7.5 7.5s7.5-3.358 7.5-7.5v-38.28c0-32.67 26.579-59.25 59.25-59.25h206.23c32.671 0 59.25 26.58 59.25 59.25v280.28c0 4.142 3.357 7.5 7.5 7.5s7.5-3.358 7.5-7.5v-34.273l77.25-27.292c3.906-1.38 5.953-5.665 4.573-9.57-1.38-3.906-5.666-5.952-9.569-4.573l-72.254 25.526v-63.474l60.432-21.349c3.906-1.38 5.953-5.665 4.573-9.57-1.38-3.906-5.666-5.952-9.569-4.574l-55.436 19.584v-61.49l49.221-17.391c3.905-1.38 5.952-5.665 4.572-9.57-1.38-3.907-5.666-5.951-9.57-4.573l-44.223 15.625v-73.316c0-40.941-33.309-74.25-74.25-74.25h-18.772l54.774-17.839c17.104-5.57 35.352-4.148 51.384 4.007s27.927 22.067 33.493 39.174l90.71 278.51c5.569 17.102 4.146 35.35-4.011 51.383-8.157 16.032-22.067 27.927-39.172 33.494l-98.227 32c2.625-7.591 4.071-15.727 4.071-24.199v-8c0-4.142-3.357-7.5-7.5-7.5s-7.5 3.358-7.5 7.5v8c0 32.67-26.579 59.25-59.25 59.25h-206.23c-32.671 0-59.25-26.58-59.25-59.25v-250c0-4.142-3.357-7.5-7.5-7.5s-7.5 3.358-7.5 7.5v250c0 40.941 33.309 74.25 74.25 74.25h206.23c24.844 0 46.862-12.278 60.347-31.072l112.704-36.716c20.913-6.806 37.923-21.351 47.896-40.955 9.974-19.604 11.716-41.917 4.904-62.829z"/><path d="m177.768 84.775c-22.529 0-40.857 18.328-40.857 40.857 0 22.528 18.328 40.856 40.857 40.856 22.528 0 40.856-18.328 40.856-40.856 0-22.529-18.328-40.857-40.856-40.857zm0 66.713c-14.258 0-25.857-11.599-25.857-25.856s11.6-25.857 25.857-25.857 25.856 11.6 25.856 25.857-11.6 25.856-25.856 25.856z"/><path d="m216.063 218.762c-3.463-2.269-8.113-1.299-10.383 2.166l-72.15 110.183c-2.27 3.465-1.3 8.114 2.166 10.383 1.267.83 2.692 1.227 4.102 1.227 2.444 0 4.842-1.194 6.281-3.393l72.149-110.183c2.27-3.465 1.3-8.114-2.165-10.383z"/><path d="m112.542 231.375c0 14.621 11.896 26.516 26.517 26.516s26.517-11.895 26.517-26.516-11.896-26.517-26.517-26.517-26.517 11.896-26.517 26.517zm26.517-11.517c6.351 0 11.517 5.167 11.517 11.517s-5.166 11.516-11.517 11.516-11.517-5.166-11.517-11.516 5.166-11.517 11.517-11.517z"/><path d="m189.959 328.601c0 14.621 11.896 26.517 26.517 26.517s26.517-11.896 26.517-26.517-11.896-26.516-26.517-26.516-26.517 11.894-26.517 26.516zm38.033 0c0 6.35-5.166 11.517-11.517 11.517s-11.517-5.167-11.517-11.517 5.166-11.516 11.517-11.516 11.517 5.165 11.517 11.516z"/><path d="m63.75 405.658c0 4.142 3.357 7.5 7.5 7.5h213.034c4.143 0 7.5-3.358 7.5-7.5s-3.357-7.5-7.5-7.5h-213.034c-4.143 0-7.5 3.358-7.5 7.5z"/><path d="m71.25 453.445h213.034c4.143 0 7.5-3.358 7.5-7.5s-3.357-7.5-7.5-7.5h-213.034c-4.143 0-7.5 3.358-7.5 7.5s3.357 7.5 7.5 7.5z"/></g></svg>